<mxfile host="app.diagrams.net" modified="2021-03-17T03:19:33.872Z" agent="5.0 (Windows NT 10.0; Win64; x64) AppleWebKit/537.36 (KHTML, like Gecko) Chrome/89.0.4389.90 Safari/537.36" etag="XjIPD0sxjZge8s9ld1N9" version="14.4.8" type="github">
  <diagram id="EVi0bnTHQeL29orYOwMS" name="Page-1">
    <mxGraphModel dx="1422" dy="705" grid="1" gridSize="10" guides="1" tooltips="1" connect="1" arrows="1" fold="1" page="1" pageScale="1" pageWidth="827" pageHeight="1169" math="0" shadow="0">
      <root>
        <mxCell id="0" />
        <mxCell id="1" parent="0" />
        <mxCell id="NKVuOpV8bZDL1S9rBEGV-1" value="&lt;font style=&quot;font-size: 20px ; line-height: 10%&quot;&gt;&amp;nbsp;&lt;br&gt;&lt;font style=&quot;vertical-align: inherit ; font-size: 20px&quot;&gt;&lt;font style=&quot;vertical-align: inherit ; font-size: 20px&quot;&gt;&lt;font style=&quot;vertical-align: inherit ; font-size: 20px&quot;&gt;&lt;font style=&quot;vertical-align: inherit ; font-size: 20px&quot;&gt;교수 번호&lt;/font&gt;&lt;/font&gt;&lt;/font&gt;&lt;/font&gt;&lt;/font&gt;" style="ellipse;whiteSpace=wrap;html=1;fillColor=#7EA6E0;" parent="1" vertex="1">
          <mxGeometry x="100" y="50" width="120" height="80" as="geometry" />
        </mxCell>
        <mxCell id="NKVuOpV8bZDL1S9rBEGV-2" value="&lt;font style=&quot;vertical-align: inherit&quot;&gt;&lt;font style=&quot;vertical-align: inherit&quot;&gt;&lt;font style=&quot;vertical-align: inherit&quot;&gt;&lt;font style=&quot;vertical-align: inherit&quot;&gt;&lt;font style=&quot;vertical-align: inherit ; font-size: 18px&quot;&gt;&lt;font style=&quot;vertical-align: inherit ; line-height: 0% ; font-size: 18px&quot;&gt;&lt;font style=&quot;vertical-align: inherit ; font-size: 18px&quot;&gt;&lt;font style=&quot;vertical-align: inherit ; font-size: 18px&quot;&gt;이름&lt;/font&gt;&lt;/font&gt;&lt;/font&gt;&lt;/font&gt;&lt;/font&gt;&lt;/font&gt;&lt;/font&gt;&lt;/font&gt;" style="ellipse;whiteSpace=wrap;html=1;aspect=fixed;fillColor=#7EA6E0;" parent="1" vertex="1">
          <mxGeometry x="300" y="40" width="80" height="80" as="geometry" />
        </mxCell>
        <mxCell id="NKVuOpV8bZDL1S9rBEGV-3" value="&lt;span style=&quot;font-size: 18px&quot;&gt;주민번호&lt;/span&gt;" style="ellipse;whiteSpace=wrap;html=1;aspect=fixed;fillColor=#7EA6E0;" parent="1" vertex="1">
          <mxGeometry x="440" y="40" width="80" height="80" as="geometry" />
        </mxCell>
        <mxCell id="NKVuOpV8bZDL1S9rBEGV-4" value="&lt;font style=&quot;vertical-align: inherit&quot;&gt;&lt;font style=&quot;vertical-align: inherit&quot;&gt;&lt;font style=&quot;vertical-align: inherit ; font-size: 30px&quot;&gt;&lt;font style=&quot;vertical-align: inherit ; font-size: 30px&quot;&gt;&lt;font style=&quot;vertical-align: inherit ; font-size: 30px&quot;&gt;&lt;font color=&quot;#fff4c3&quot; style=&quot;vertical-align: inherit ; font-size: 30px&quot;&gt;교수&lt;/font&gt;&lt;/font&gt;&lt;/font&gt;&lt;/font&gt;&lt;/font&gt;&lt;/font&gt;" style="rounded=1;whiteSpace=wrap;html=1;fillColor=#7EA6E0;" parent="1" vertex="1">
          <mxGeometry x="225" y="180" width="230" height="90" as="geometry" />
        </mxCell>
        <mxCell id="NKVuOpV8bZDL1S9rBEGV-14" value="&lt;span style=&quot;font-size: 20px&quot;&gt;학번&lt;/span&gt;" style="ellipse;whiteSpace=wrap;html=1;fillColor=#7EA6E0;" parent="1" vertex="1">
          <mxGeometry x="580" y="40" width="120" height="80" as="geometry" />
        </mxCell>
        <mxCell id="NKVuOpV8bZDL1S9rBEGV-15" value="&lt;font style=&quot;vertical-align: inherit&quot;&gt;&lt;font style=&quot;vertical-align: inherit&quot;&gt;&lt;font style=&quot;vertical-align: inherit&quot;&gt;&lt;font style=&quot;vertical-align: inherit&quot;&gt;&lt;font style=&quot;vertical-align: inherit ; font-size: 18px&quot;&gt;&lt;font style=&quot;vertical-align: inherit ; line-height: 0% ; font-size: 18px&quot;&gt;&lt;font style=&quot;vertical-align: inherit ; font-size: 18px&quot;&gt;&lt;font style=&quot;vertical-align: inherit ; font-size: 18px&quot;&gt;이름&lt;/font&gt;&lt;/font&gt;&lt;/font&gt;&lt;/font&gt;&lt;/font&gt;&lt;/font&gt;&lt;/font&gt;&lt;/font&gt;" style="ellipse;whiteSpace=wrap;html=1;aspect=fixed;fillColor=#7EA6E0;" parent="1" vertex="1">
          <mxGeometry x="780" y="30" width="80" height="80" as="geometry" />
        </mxCell>
        <mxCell id="NKVuOpV8bZDL1S9rBEGV-16" value="&lt;span style=&quot;font-size: 18px&quot;&gt;학년&lt;/span&gt;" style="ellipse;whiteSpace=wrap;html=1;aspect=fixed;fillColor=#7EA6E0;" parent="1" vertex="1">
          <mxGeometry x="920" y="30" width="80" height="80" as="geometry" />
        </mxCell>
        <mxCell id="NKVuOpV8bZDL1S9rBEGV-17" value="&lt;font color=&quot;#fff4c3&quot;&gt;&lt;span style=&quot;font-size: 30px&quot;&gt;학생&lt;/span&gt;&lt;/font&gt;" style="rounded=1;whiteSpace=wrap;html=1;fillColor=#7EA6E0;" parent="1" vertex="1">
          <mxGeometry x="705" y="170" width="230" height="90" as="geometry" />
        </mxCell>
        <mxCell id="NKVuOpV8bZDL1S9rBEGV-18" value="" style="endArrow=none;html=1;" parent="1" target="NKVuOpV8bZDL1S9rBEGV-14" edge="1">
          <mxGeometry width="50" height="50" relative="1" as="geometry">
            <mxPoint x="710" y="180" as="sourcePoint" />
            <mxPoint x="720" y="120" as="targetPoint" />
          </mxGeometry>
        </mxCell>
        <mxCell id="NKVuOpV8bZDL1S9rBEGV-19" value="" style="endArrow=none;html=1;" parent="1" edge="1">
          <mxGeometry width="50" height="50" relative="1" as="geometry">
            <mxPoint x="930" y="174" as="sourcePoint" />
            <mxPoint x="960.003127919867" y="109.99732559981021" as="targetPoint" />
            <Array as="points" />
          </mxGeometry>
        </mxCell>
        <mxCell id="NKVuOpV8bZDL1S9rBEGV-20" value="" style="endArrow=none;html=1;exitX=0.47;exitY=0.022;exitDx=0;exitDy=0;exitPerimeter=0;" parent="1" source="NKVuOpV8bZDL1S9rBEGV-17" edge="1">
          <mxGeometry width="50" height="50" relative="1" as="geometry">
            <mxPoint x="815" y="174" as="sourcePoint" />
            <mxPoint x="815.3731279198671" y="109.99732559981021" as="targetPoint" />
          </mxGeometry>
        </mxCell>
        <mxCell id="HwjNAr2LJ1iFpGT7JC7S-36" value="&lt;span style=&quot;font-size: 20px&quot;&gt;전화번호&lt;/span&gt;" style="ellipse;whiteSpace=wrap;html=1;fillColor=#7EA6E0;" vertex="1" parent="1">
          <mxGeometry x="70" y="290" width="170" height="100" as="geometry" />
        </mxCell>
        <mxCell id="HwjNAr2LJ1iFpGT7JC7S-38" value="&lt;span style=&quot;font-size: 18px&quot;&gt;직위&lt;/span&gt;" style="ellipse;whiteSpace=wrap;html=1;aspect=fixed;fillColor=#7EA6E0;" vertex="1" parent="1">
          <mxGeometry x="300" y="310" width="80" height="80" as="geometry" />
        </mxCell>
        <mxCell id="HwjNAr2LJ1iFpGT7JC7S-40" value="&lt;span style=&quot;font-size: 18px&quot;&gt;임용년&lt;/span&gt;" style="ellipse;whiteSpace=wrap;html=1;aspect=fixed;fillColor=#7EA6E0;" vertex="1" parent="1">
          <mxGeometry x="440" y="300" width="80" height="80" as="geometry" />
        </mxCell>
        <mxCell id="HwjNAr2LJ1iFpGT7JC7S-43" value="&lt;font style=&quot;vertical-align: inherit&quot;&gt;&lt;font style=&quot;vertical-align: inherit&quot;&gt;&lt;font style=&quot;vertical-align: inherit&quot;&gt;&lt;font style=&quot;vertical-align: inherit&quot;&gt;&lt;font style=&quot;vertical-align: inherit ; font-size: 18px&quot;&gt;&lt;font style=&quot;vertical-align: inherit ; line-height: 0% ; font-size: 18px&quot;&gt;&lt;font style=&quot;vertical-align: inherit ; font-size: 18px&quot;&gt;&lt;font style=&quot;vertical-align: inherit ; font-size: 18px&quot;&gt;이름&lt;/font&gt;&lt;/font&gt;&lt;/font&gt;&lt;/font&gt;&lt;/font&gt;&lt;/font&gt;&lt;/font&gt;&lt;/font&gt;" style="ellipse;whiteSpace=wrap;html=1;aspect=fixed;fillColor=#7EA6E0;" vertex="1" parent="1">
          <mxGeometry x="770" y="300" width="80" height="80" as="geometry" />
        </mxCell>
        <mxCell id="HwjNAr2LJ1iFpGT7JC7S-44" value="&lt;span style=&quot;font-size: 18px&quot;&gt;학과&lt;/span&gt;" style="ellipse;whiteSpace=wrap;html=1;aspect=fixed;fillColor=#7EA6E0;" vertex="1" parent="1">
          <mxGeometry x="610" y="290" width="80" height="80" as="geometry" />
        </mxCell>
        <mxCell id="HwjNAr2LJ1iFpGT7JC7S-70" value="&lt;span style=&quot;font-size: 18px&quot;&gt;주민번호&lt;/span&gt;" style="ellipse;whiteSpace=wrap;html=1;aspect=fixed;fillColor=#7EA6E0;" vertex="1" parent="1">
          <mxGeometry x="1000" y="170" width="80" height="80" as="geometry" />
        </mxCell>
        <mxCell id="HwjNAr2LJ1iFpGT7JC7S-71" value="&lt;span style=&quot;font-size: 18px&quot;&gt;전화번호&lt;/span&gt;" style="ellipse;whiteSpace=wrap;html=1;aspect=fixed;fillColor=#7EA6E0;" vertex="1" parent="1">
          <mxGeometry x="960" y="290" width="80" height="80" as="geometry" />
        </mxCell>
        <mxCell id="HwjNAr2LJ1iFpGT7JC7S-75" value="" style="endArrow=none;html=1;" edge="1" parent="1">
          <mxGeometry width="50" height="50" relative="1" as="geometry">
            <mxPoint x="234.63" y="183.75" as="sourcePoint" />
            <mxPoint x="190.0031279198364" y="119.9973255997661" as="targetPoint" />
          </mxGeometry>
        </mxCell>
        <mxCell id="HwjNAr2LJ1iFpGT7JC7S-76" value="" style="endArrow=none;html=1;" edge="1" parent="1">
          <mxGeometry width="50" height="50" relative="1" as="geometry">
            <mxPoint x="475" y="303.75" as="sourcePoint" />
            <mxPoint x="455" y="260" as="targetPoint" />
          </mxGeometry>
        </mxCell>
        <mxCell id="HwjNAr2LJ1iFpGT7JC7S-77" value="" style="endArrow=none;html=1;exitX=0.935;exitY=-0.022;exitDx=0;exitDy=0;exitPerimeter=0;" edge="1" parent="1" source="NKVuOpV8bZDL1S9rBEGV-4">
          <mxGeometry width="50" height="50" relative="1" as="geometry">
            <mxPoint x="514.63" y="180" as="sourcePoint" />
            <mxPoint x="470.0031279198364" y="116.2473255997661" as="targetPoint" />
          </mxGeometry>
        </mxCell>
        <mxCell id="HwjNAr2LJ1iFpGT7JC7S-78" value="" style="endArrow=none;html=1;exitX=0.47;exitY=-0.033;exitDx=0;exitDy=0;exitPerimeter=0;" edge="1" parent="1" source="NKVuOpV8bZDL1S9rBEGV-4">
          <mxGeometry width="50" height="50" relative="1" as="geometry">
            <mxPoint x="380" y="183.75" as="sourcePoint" />
            <mxPoint x="335.3731279198364" y="119.9973255997661" as="targetPoint" />
          </mxGeometry>
        </mxCell>
        <mxCell id="HwjNAr2LJ1iFpGT7JC7S-79" value="" style="endArrow=none;html=1;exitX=0.413;exitY=-0.012;exitDx=0;exitDy=0;exitPerimeter=0;" edge="1" parent="1" source="HwjNAr2LJ1iFpGT7JC7S-43">
          <mxGeometry width="50" height="50" relative="1" as="geometry">
            <mxPoint x="850" y="323.75" as="sourcePoint" />
            <mxPoint x="805.3731279198364" y="259.9973255997661" as="targetPoint" />
          </mxGeometry>
        </mxCell>
        <mxCell id="HwjNAr2LJ1iFpGT7JC7S-80" value="" style="endArrow=none;html=1;" edge="1" parent="1">
          <mxGeometry width="50" height="50" relative="1" as="geometry">
            <mxPoint x="210" y="300" as="sourcePoint" />
            <mxPoint x="230" y="270" as="targetPoint" />
            <Array as="points">
              <mxPoint x="210" y="300" />
            </Array>
          </mxGeometry>
        </mxCell>
        <mxCell id="HwjNAr2LJ1iFpGT7JC7S-81" value="" style="endArrow=none;html=1;" edge="1" parent="1">
          <mxGeometry width="50" height="50" relative="1" as="geometry">
            <mxPoint x="339.5" y="310" as="sourcePoint" />
            <mxPoint x="339.5031279198364" y="269.9973255997661" as="targetPoint" />
          </mxGeometry>
        </mxCell>
        <mxCell id="HwjNAr2LJ1iFpGT7JC7S-82" value="" style="endArrow=none;html=1;" edge="1" parent="1" source="HwjNAr2LJ1iFpGT7JC7S-71">
          <mxGeometry width="50" height="50" relative="1" as="geometry">
            <mxPoint x="979.63" y="290" as="sourcePoint" />
            <mxPoint x="935" y="260" as="targetPoint" />
            <Array as="points" />
          </mxGeometry>
        </mxCell>
        <mxCell id="HwjNAr2LJ1iFpGT7JC7S-83" value="" style="endArrow=none;html=1;entryX=0;entryY=0.5;entryDx=0;entryDy=0;" edge="1" parent="1" target="HwjNAr2LJ1iFpGT7JC7S-70">
          <mxGeometry width="50" height="50" relative="1" as="geometry">
            <mxPoint x="934.63" y="213.75" as="sourcePoint" />
            <mxPoint x="1000.0031279198364" y="149.9973255997661" as="targetPoint" />
          </mxGeometry>
        </mxCell>
        <mxCell id="HwjNAr2LJ1iFpGT7JC7S-84" value="" style="endArrow=none;html=1;" edge="1" parent="1">
          <mxGeometry width="50" height="50" relative="1" as="geometry">
            <mxPoint x="679.63" y="310" as="sourcePoint" />
            <mxPoint x="705.0031279198364" y="256.2473255997661" as="targetPoint" />
          </mxGeometry>
        </mxCell>
      </root>
    </mxGraphModel>
  </diagram>
</mxfile>
